Coordinates
version=1
nRows=10
nColumns=40
inDegrees=yes

Units are S.I. units (second, meters, Newtons, ...)
Angles are in degrees.

endheader
time	pelvis_tilt	pelvis_list	pelvis_rotation	pelvis_tx	pelvis_ty	pelvis_tz	hip_flexion_r	hip_adduction_r	hip_rotation_r	knee_angle_r	knee_angle_r_beta	ankle_angle_r	subtalar_angle_r	mtp_angle_r	hip_flexion_l	hip_adduction_l	hip_rotation_l	knee_angle_l	knee_angle_l_beta	ankle_angle_l	subtalar_angle_l	mtp_angle_l	lumbar_extension	lumbar_bending	lumbar_rotation	arm_flex_r	arm_add_r	arm_rot_r	elbow_flex_r	pro_sup_r	wrist_flex_r	wrist_dev_r	arm_flex_l	arm_add_l	arm_rot_l	elbow_flex_l	pro_sup_l	wrist_flex_l	wrist_dev_l
     34.30500000	     -5.15171261	     -6.22127485	      3.86031915	      1.02654481	      0.92845048	      0.51612611	     11.40953748	      4.78595167	    -17.84132901	     15.58310909	     15.58310909	     12.07752469	      3.23174978	     -3.32847335	     42.13593607	    -14.21375629	      2.65828365	     57.62680560	     57.62680560	     10.67746553	    -18.96059412	     16.95145567	    -13.45351322	      7.05850030	      5.87075552	     21.91803712	    -16.65687421	     -0.88984050	     44.20685042	     45.78467735	      0.00000000	      0.00000000	     -0.92460608	     -8.50782799	     -2.61415901	     45.51000822	     47.26501492	      0.00000000	      0.00000000
     34.31685714	     -5.08075914	     -6.26041500	      3.85052251	      1.02509478	      0.92831285	      0.51636209	     10.57595771	      5.00472934	    -17.69127144	     15.04447692	     15.04447692	     12.34328007	      3.36744152	     -3.43658987	     42.45773339	    -13.95454410	      2.78541009	     54.60895372	     54.60895372	     10.29078811	    -18.87264902	     17.18580787	    -13.54454400	      7.04685403	      5.85023890	     24.44116324	    -16.48177587	     -0.85555937	     45.86474736	     45.73385117	      0.00000000	      0.00000000	     -2.54649357	     -8.49444918	     -2.59007291	     43.36314720	     47.21448985	      0.00000000	      0.00000000
     34.32871429	     -5.07604424	     -6.32535764	      3.80550115	      1.02374137	      0.92803484	      0.51649004	      9.79340619	      5.23578234	    -17.56039492	     14.48188272	     14.48188272	     12.58620896	      3.57918653	     -3.57941782	     42.67483855	    -13.67794845	      2.97283283	     51.40306544	     51.40306544	      9.81463164	    -18.66688192	     17.25530558	    -13.53217053	      7.07423258	      5.86087274	     26.89614295	    -16.27726004	     -0.69726016	     47.59360930	     45.67478269	      0.00000000	      0.00000000	     -3.99690836	     -8.40860050	     -2.57787203	     40.89596274	     47.16565042	      0.00000000	      0.00000000
     34.34057143	     -5.08183745	     -6.41686107	      3.72066855	      1.02253634	      0.92763997	      0.51646997	      9.02214116	      5.46416164	    -17.47666744	     13.94783245	     13.94783245	     12.82257357	      3.90054685	     -3.75907761	     42.73748941	    -13.40105419	      3.23094791	     48.07391779	     48.07391779	      9.28357373	    -18.32147631	     17.16253243	    -13.46378156	      7.16920667	      5.95109304	     29.25180315	    -16.10246599	     -0.46159229	     49.40126036	     45.60976920	      0.00000000	      0.00000000	     -5.33820806	     -8.28630638	     -2.57309168	     38.36853299	     47.12279640	      0.00000000	      0.00000000
     34.35242857	     -5.13605419	     -6.61694539	      3.63151458	      1.02150615	      0.92706216	      0.51636200	      8.24152953	      5.78760524	    -17.58421725	     13.30308933	     13.30308933	     12.90352366	      4.54180576	     -4.38700848	     42.65301753	    -13.27289207	      3.45617765	     44.50893288	     44.50893288	      8.00282269	    -17.77169278	     14.67024033	    -13.33233872	      7.40864666	      6.60379239	     30.88792057	    -16.79725157	      0.91824796	     52.62551358	     45.43947338	      0.00000000	      0.00000000	     -5.16623018	     -7.73871083	     -3.05971770	     32.67804933	     47.11118908	      0.00000000	      0.00000000
     34.36428571	     -5.11091379	     -6.74866458	      3.54746805	      1.02064235	      0.92659950	      0.51613609	      7.36340219	      6.05124465	    -17.56457950	     12.67145815	     12.67145815	     13.10154230	      5.03236142	     -4.63999510	     42.30795662	    -13.06445973	      3.67505162	     40.90285156	     40.90285156	      7.07894591	    -16.94656589	     13.20647841	    -13.32061229	      7.51400353	      6.87682101	     32.65152655	    -16.85235475	      1.13731301	     55.68004309	     45.33682847	      0.00000000	      0.00000000	     -6.36406226	     -7.54528146	     -3.54633320	     30.48081131	     47.07720590	      0.00000000	      0.00000000
     34.37614286	     -5.10740785	     -6.82924122	      3.42709277	      1.01999895	      0.92611059	      0.51581866	      6.49719179	      6.24425704	    -17.49395894	     12.07004764	     12.07004764	     13.37194589	      5.53360607	     -4.69218273	     41.89484805	    -12.86866345	      3.74915974	     37.47711303	     37.47711303	      6.96471939	    -15.59281983	     13.51445274	    -13.22476152	      7.55780831	      6.86131908	     34.86375891	    -16.31562973	      1.08234422	     57.44145658	     45.28939190	      0.00000000	      0.00000000	     -8.01046019	     -7.55863999	     -3.47467007	     29.29405794	     47.02851597	      0.00000000	      0.00000000
     34.38800000	     -5.07884374	     -7.01814971	      3.34655312	      1.01959744	      0.92553140	      0.51535776	      5.51474475	      6.54976969	    -17.59430311	     11.31926904	     11.31926904	     13.58525996	      6.30852239	     -4.74405811	     41.40744849	    -12.79724778	      3.77200174	     34.21760765	     34.21760765	      6.91126393	    -14.00105252	     13.63009052	    -13.14561329	      7.74319934	      6.67150358	     36.98100920	    -15.66085705	      1.17911778	     59.67792364	     45.21966230	      0.00000000	      0.00000000	     -9.59359147	     -7.49512078	     -3.32381667	     27.94333914	     46.96587063	      0.00000000	      0.00000000
     34.39985714	     -5.04022722	     -7.22599558	      3.26995197	      1.01944376	      0.92485796	      0.51474794	      4.48406665	      6.86011982	    -17.77447733	     10.53490166	     10.53490166	     13.79902500	      7.24525689	     -4.80876540	     40.83727521	    -12.78383184	      3.60848233	     31.17430497	     31.17430497	      6.88112594	    -12.36139965	     13.73246940	    -13.04173742	      7.96397768	      6.56113292	     38.87209891	    -15.09498070	      1.38513231	     62.23062143	     45.13550477	      0.00000000	      0.00000000	    -11.07129766	     -7.40674894	     -3.11372021	     26.63544755	     46.89377552	      0.00000000	      0.00000000
     34.41171429	     -5.04533605	     -7.35171227	      3.15387729	      1.01946720	      0.92412652	      0.51402258	      3.53266676	      7.06335158	    -17.85408348	      9.85321806	      9.85321806	     14.05431885	      8.00930178	     -4.86245911	     40.17954329	    -12.71865146	      3.21182888	     28.32764770	     28.32764770	      6.86434214	    -10.91644500	     14.05086986	    -12.86902925	      8.07721413	      6.57459772	     40.58966703	    -14.57541976	      1.53595069	     64.50522570	     45.06259486	      0.00000000	      0.00000000	    -12.49372090	     -7.35176653	     -2.93354812	     25.67082575	     46.82923588	      0.00000000	      0.00000000
